<svg width="420" height="275" viewBox="0 0 420 275" fill="none" xmlns="http://www.w3.org/2000/svg">
<circle cx="137.5" cy="137.5" r="125" stroke="#824CF4" stroke-width="25"/>
<mask id="path-2-inside-1_178_863" fill="white">
<path d="M275 137.5C275 119.443 271.443 101.563 264.533 84.881C257.623 68.1988 247.495 53.0409 234.727 40.2728C221.959 27.5048 206.801 17.3766 190.119 10.4666C173.437 3.55654 155.557 -2.94182e-06 137.5 0V25.0276C152.27 25.0276 166.896 27.9368 180.541 33.5891C194.187 39.2413 206.586 47.526 217.03 57.97C227.474 68.414 235.759 80.8129 241.411 94.4587C247.063 108.104 249.972 122.73 249.972 137.5H275Z"/>
</mask>
<path d="M275 137.5C275 119.443 271.443 101.563 264.533 84.881C257.623 68.1988 247.495 53.0409 234.727 40.2728C221.959 27.5048 206.801 17.3766 190.119 10.4666C173.437 3.55654 155.557 -2.94182e-06 137.5 0V25.0276C152.27 25.0276 166.896 27.9368 180.541 33.5891C194.187 39.2413 206.586 47.526 217.03 57.97C227.474 68.414 235.759 80.8129 241.411 94.4587C247.063 108.104 249.972 122.73 249.972 137.5H275Z" stroke="#BE9FFF" stroke-width="50" mask="url(#path-2-inside-1_178_863)"/>
<rect x="306" y="134" width="33" height="7" fill="#824CF4"/>
<path d="M354.744 131.752V139.128C354.744 139.752 354.536 140.264 354.12 140.648C353.704 141.032 353.16 141.224 352.472 141.224C351.848 141.224 351.336 141.032 350.952 140.648C350.568 140.264 350.376 139.752 350.376 139.128V131.752H348.28V139.192C348.28 140.36 348.68 141.32 349.48 142.072C350.296 142.824 351.304 143.208 352.536 143.208C353.784 143.208 354.808 142.84 355.624 142.088C356.44 141.336 356.84 140.376 356.84 139.208V131.768L354.744 131.752ZM361.074 143V138.376C361.074 137.832 361.234 137.384 361.554 137.032C361.874 136.68 362.29 136.504 362.818 136.504C363.346 136.504 363.746 136.664 364.034 136.968C364.322 137.272 364.466 137.704 364.466 138.264V142.968H366.466V137.736C366.466 136.808 366.194 136.056 365.65 135.496C365.106 134.936 364.386 134.648 363.474 134.648C362.946 134.648 362.482 134.76 362.05 134.984C361.618 135.208 361.25 135.528 360.962 135.928V134.872H359.058V142.984L361.074 143ZM368.731 131.144V143H370.731V131.144H368.731ZM372.514 138.936C372.514 140.152 372.93 141.176 373.746 141.992C374.562 142.808 375.602 143.224 376.866 143.224C378.13 143.224 379.186 142.824 380.002 142.008C380.834 141.192 381.25 140.184 381.25 138.968C381.25 137.768 380.834 136.76 380.002 135.944C379.186 135.128 378.13 134.728 376.866 134.728C375.602 134.728 374.562 135.144 373.746 135.96C372.93 136.776 372.514 137.784 372.514 138.984V138.936ZM379.266 138.984C379.266 139.672 379.042 140.248 378.594 140.712C378.146 141.176 377.57 141.416 376.882 141.416C376.194 141.416 375.634 141.192 375.186 140.728C374.738 140.264 374.514 139.688 374.514 139C374.514 138.312 374.738 137.736 375.186 137.272C375.634 136.808 376.194 136.584 376.882 136.584C377.57 136.584 378.146 136.808 378.61 137.272C379.074 137.736 379.298 138.312 379.298 139L379.266 138.984ZM386.788 134.68C385.54 134.68 384.5 135.096 383.652 135.912C382.82 136.728 382.404 137.736 382.404 138.936C382.404 140.168 382.82 141.176 383.652 141.992C384.5 142.808 385.54 143.224 386.788 143.224C387.86 143.224 388.788 142.904 389.54 142.248C390.324 141.592 390.788 140.744 390.964 139.704H388.98C388.836 140.2 388.564 140.6 388.164 140.904C387.764 141.208 387.3 141.368 386.772 141.368C386.084 141.368 385.524 141.144 385.076 140.68C384.628 140.216 384.404 139.64 384.404 138.952C384.404 138.264 384.628 137.688 385.076 137.224C385.524 136.76 386.084 136.536 386.772 136.536C387.3 136.536 387.748 136.68 388.132 136.968C388.532 137.272 388.788 137.656 388.932 138.136H390.932C390.756 137.128 390.276 136.296 389.508 135.656C388.74 135.016 387.812 134.696 386.74 134.696L386.788 134.68ZM394.684 143V139.048L397.772 143H400.236L396.7 138.52L399.692 134.888H397.372L394.684 138.216V131.144H392.684V143H394.684ZM404.614 141.544C403.99 141.544 403.462 141.352 403.03 140.968C402.598 140.584 402.342 140.088 402.246 139.464H408.838V138.824C408.838 137.624 408.438 136.632 407.654 135.848C406.87 135.064 405.862 134.68 404.63 134.68C403.414 134.68 402.39 135.096 401.558 135.928C400.726 136.76 400.31 137.768 400.31 138.952C400.31 140.184 400.71 141.192 401.526 142.008C402.342 142.824 403.366 143.24 404.598 143.24C405.606 143.24 406.47 142.984 407.19 142.488C407.91 141.992 408.406 141.304 408.678 140.424H406.726C406.518 140.808 406.23 141.096 405.894 141.288C405.542 141.48 405.126 141.576 404.646 141.576L404.614 141.544ZM404.662 136.376C405.222 136.376 405.702 136.52 406.102 136.824C406.502 137.128 406.774 137.544 406.918 138.072H402.39C402.566 137.544 402.854 137.128 403.254 136.824C403.654 136.52 404.134 136.376 404.694 136.376H404.662ZM413.982 143.208C414.59 143.208 415.15 143.08 415.662 142.824C416.158 142.568 416.59 142.2 416.926 141.72V143.016H418.814V131.16H416.814V136.008C416.478 135.592 416.078 135.272 415.582 135.032C415.102 134.808 414.574 134.696 414.014 134.696C412.862 134.696 411.918 135.096 411.166 135.912C410.414 136.728 410.046 137.752 410.046 138.984C410.046 140.216 410.414 141.224 411.15 142.024C411.886 142.824 412.83 143.224 413.966 143.224L413.982 143.208ZM412.11 138.968C412.11 138.28 412.334 137.688 412.782 137.224C413.23 136.76 413.806 136.536 414.494 136.536C415.182 136.536 415.742 136.776 416.19 137.24C416.638 137.704 416.862 138.28 416.862 138.968C416.862 139.656 416.638 140.232 416.19 140.696C415.742 141.16 415.182 141.4 414.494 141.4C413.806 141.4 413.23 141.176 412.782 140.712C412.334 140.248 412.11 139.672 412.11 138.984V138.968Z" fill="white"/>
</svg>
